# xmcd CD database file
#
# Track frame offsets:
#	182
#	12825
#	28945
#	46812
#	67242
#	85815
#	107917
#	124897
#	138900
#	162585
#	182222
#	203247
#
# Disc length: 2879 seconds
#
# Revision: 3
# Processed by: cddbd v1.5.2PL0 Copyright (c) Steve Scherf et al.
# Submitted via: CDex 1.79
#
DISCID=ad0b3d0c
DTITLE=Randy Scruggs - Crown Of Jewels
DYEAR=1998
DGENRE=Country
TTITLE0=A Soldier's Joy (featuring Vince Gill)
TTITLE1=It's Only Love (featuring Mary Chapin Carpenter)
TTITLE2=I Wanna Be Loved Back (featuring Trisha Yearwood)
TTITLE3=Amie (featuring Travis Tritt)
TTITLE4=Travel On (featuring Bruce Hornsby and Lee Roy Parnell)
TTITLE5=City Of New Orleans (featuring John Prine)
TTITLE6=Wildwood Flower (featuring Emmylou Harris and Iris DeMent)
TTITLE7=Lonesome Ruben (featuring Earl Scruggs and Jerry Douglas)
TTITLE8=Passin' Thru (featuring Joan Osborne)
TTITLE9=My Secret Life (featuring Rosanne Cash)
TTITLE10=Crown Of Jewels (featuring Bruce Hornsby)
TTITLE11=Both Sides Now
EXTD=YEAR: 1998
EXTT0=
EXTT1=
EXTT2=
EXTT3=
EXTT4=
EXTT5=
EXTT6=
EXTT7=
EXTT8=
EXTT9=
EXTT10=
EXTT11=
PLAYORDER=
